<svg fill="none" height="26" viewBox="0 0 64 26" width="64" xmlns="http://www.w3.org/2000/svg"><path d="m0 25.3876c.0831127-.2984.148516-.6011.195881-.9068.059542-.3605.112993-.8083.160356-1.3434.047363-.535.082887-1.1717.106568-1.9098.023682-.7381.035522-1.6013.035522-2.5894v-11.35286c0-.98815-.01184-1.85129-.035522-2.58943-.023681-.73814-.059205-1.37773-.106568-1.91876-.047363-.54038-.100814-.9908-.160356-1.35127-.047365-.3057-.1127683-.608472-.195881-.906796v-.069448h4.26267v.069448c-.08311.298762-.15086.601406-.20299.906796-.06766.36047-.12111.81089-.16035 1.35127-.03925.54037-.07477 1.17996-.10657 1.91876-.02977.73814-.04466 1.60128-.04466 2.58943v11.35286c0 .9881.01489 1.8513.04466 2.5894s.06529 1.3748.10657 1.9098c.04195.5351.0954.9829.16035 1.3434.05213.3054.11988.608.20299.9068v.0694h-4.26267zm16.9492-6.7465c0 .9882.0149 1.8513.0446 2.5895.0298.7381.0653 1.3747.1066 1.9098.042.5351.0954.9829.1604 1.3433.0521.3054.1198.6081.2029.9068v.0665h-4.2819v-.0694c.0831-.2988.1509-.6014.203-.9068.0676-.3605.1211-.8083.1603-1.3434.0393-.535.0748-1.1687.1066-1.9009.0298-.7321.0447-1.5983.0447-2.5983v-11.35286c0-.98815-.0149-1.85129-.0447-2.58943s-.0653-1.37475-.1066-1.90983c-.0419-.53509-.0954-.98551-.1603-1.35127-.0516-.30844-.1194-.61408-.203-.915726v-.069448l.749.069448c.226.023149.4787.037701.7582.043654.2794.005952.568.008928.8657.008928.6303-.013954 1.2589-.069307 1.8816-.165684 1.0028-.122804 2.013-.178162 3.0235-.165684 1.0732-.009961 2.1414.142994 3.1665.453399.9216.277182 1.779.727413 2.5242 1.325473.7131.5802 1.2833 1.30993 1.6685 2.13504.4115.90219.6159 1.88154.5988 2.86921.0072.78777-.1039 1.5723-.3299 2.32851-.2079.68987-.5206 1.34537-.9276 1.94457-.3981.5811-.882 1.1013-1.4361 1.5437-.5707.4543-1.2008.8324-1.8736 1.1241l6.2621 8.5977c.3092.4299.5978.802.8657 1.1161.2397.2844.4959.555.7673.8106.2174.2062.4532.3931.7044.5586.2169.1409.4507.2552.6962.3403v.0694h-5.1558c-.0694-.3093-.1868-.6064-.3481-.881-.2037-.3785-.4332-.7431-.6871-1.0913l-6.3159-8.7019c-.2706.0231-.5443.0436-.821.0615-.2768.0179-.5562.0265-.8384.0258-.3329 0-.6688-.0116-1.0078-.0347-.3439-.0238-.6863-.0646-1.0261-.1221zm0-5.284c.3235.07.6513.1194.9814.1478.3329.0291.654.0437.9632.0437.8321.0083 1.6592-.126 2.4439-.3969.7145-.2462 1.3592-.6542 1.8817-1.1905.5418-.5747.9525-1.2555 1.2047-1.99713.3023-.90284.4471-1.84897.4283-2.79877.009-.80056-.0935-1.59859-.3045-2.37216-.1741-.65479-.4801-1.26901-.9002-1.80665-.401-.496-.9178-.89067-1.5072-1.15086-.6689-.28563-1.3934-.42545-2.1232-.40975-.6566-.01106-1.313.02975-1.9629.12203-.3761.05431-.7464.14198-1.1062.26192zm21.633 12.0305c.0831-.2984.1485-.6011.1959-.9068.0595-.3605.113-.8083.1604-1.3434.0473-.535.0828-1.1717.1065-1.9098s.0356-1.6013.0356-2.5894v-11.35286c0-.98815-.0119-1.85129-.0356-2.58943s-.0588-1.37773-.1055-1.91876c-.0474-.54038-.1008-.9908-.1604-1.35127-.0473-.3057-.1127-.608472-.1959-.906796v-.069448h4.2627v.069448c-.0831.298762-.1509.601406-.203.906796-.0676.36047-.1211.81089-.1603 1.35127-.0393.54037-.0748 1.17996-.1066 1.91876-.0298.73814-.0447 1.60128-.0447 2.58943v11.35286c0 .9881.0149 1.8513.0447 2.5894s.0653 1.3748.1066 1.9098c.0419.5351.0954.9829.1603 1.3434.0521.3054.1199.608.203.9068v.0694h-4.2627zm23.8497-20.96353h-.3928c-.1195-.31664-.2719-.62049-.4547-.9068-.2236-.35509-.5004-.67545-.8211-.95045-.3652-.31238-.7813-.56287-1.2311-.74111-.5421-.20898-1.1214-.31017-1.704-.29764-.5296-.00903-1.0561.07984-1.5518.26192-.4284.15908-.8153.40916-1.1327.73218-.3073.32027-.5415.70071-.6871 1.11614-.1597.46024-.2383.94367-.2324 1.42964.0038.85007.2544 1.68162.7226 2.39796.522.8119 1.1288 1.56864 1.8106 2.25806.7254.74413 1.5102 1.48823 2.3546 2.23223.8291.7291 1.6152 1.5036 2.3547 2.3196.7013.7686 1.3089 1.6143 1.8106 2.52.4798.8704.7283 1.8447.7226 2.8335-.0049.7754-.1421 1.5446-.406 2.2759-.266.7585-.6881 1.4558-1.2402 2.0488-.602.6363-1.3359 1.1399-2.1526 1.4772-.9953.3994-2.0646.5923-3.1402.5665-.6498.0025-1.2983-.0589-1.9355-.1835-.5749-.1131-1.1409-.2656-1.6939-.4564-.477-.1633-.9419-.3585-1.3914-.5844-.3469-.1728-.6834-.3649-1.0078-.5754l.4059-3.8544h.4456c.132.5491.3486 1.0753.6424 1.5606.2935.4894.6637.9306 1.0972 1.3076.4409.382.9446.6886 1.4899.9068.584.2339 1.2099.3516 1.841.3463.5563.0086 1.1095-.0829 1.632-.2699.4602-.1671.8818-.422 1.2402-.75.3455-.3205.6162-.71.7937-1.1419.1878-.4613.2813-.9541.2751-1.4505.0085-.6973-.1297-1.3889-.406-2.0319-.2801-.6329-.6427-1.2278-1.0789-1.7699-.4634-.5769-.9702-1.1191-1.5163-1.6221-.5649-.5232-1.1448-1.0494-1.7395-1.5785-.5948-.5291-1.1746-1.0728-1.7396-1.631-.5586-.5502-1.066-1.1478-1.5163-1.7859-.4467-.6332-.8102-1.31884-1.0819-2.04075-.2795-.76952-.417-1.58145-.406-2.39796-.0127-.85632.1733-1.70433.544-2.4803.3478-.71858.8392-1.36187 1.4453-1.89197.5984-.52194 1.2913-.930076 2.043-1.20344.7525-.277526 1.5503-.41937938 2.3546-.41867579.5503-.00370951 1.0998.04312659 1.6412.13988979.4557.082189.9055.192872 1.3468.331368.3985.127652.7463.255635 1.0433.383949l.7317.313509z" fill="#616d7e"/></svg>