<svg fill="none" height="29" viewBox="0 0 29 29" width="29" xmlns="http://www.w3.org/2000/svg" xmlns:xlink="http://www.w3.org/1999/xlink"><linearGradient id="a"><stop offset="0" stop-color="#3183ff"/><stop offset="1" stop-color="#0b62e4"/></linearGradient><linearGradient id="b" gradientUnits="userSpaceOnUse" x1="12.7029" x2="27.2672" xlink:href="#a" y1="2.41406" y2="12.4247"/><linearGradient id="c" gradientUnits="userSpaceOnUse" x1="12.7029" x2="12.7803" xlink:href="#a" y1="14.5" y2="15.7864"/><linearGradient id="d" gradientUnits="userSpaceOnUse" x1="13.7571" x2="21.7499" xlink:href="#a" y1="2.36719" y2="4.5691"/><g stroke-linecap="round" stroke-linejoin="round" stroke-width="2"><path d="m14.5013 2.41406c-3.2047 0-6.27814 1.27306-8.5442 3.53913-2.26607 2.26606-3.53913 5.33951-3.53913 8.54421s1.27306 6.2781 3.53913 8.5442c2.26606 2.2661 5.3395 3.5391 8.5442 3.5391s6.2781-1.273 8.5442-3.5391 3.5391-5.3395 3.5391-8.5442-1.273-6.27815-3.5391-8.54421c-2.2661-2.26607-5.3395-3.53913-8.5442-3.53913z" stroke="url(#b)"/><path d="m2.41797 14.5h24.16663" stroke="url(#c)"/><path d="m14.5024 2.41552-.0121-.01208c3.0208 3.29875 4.7367 7.60046 4.8333 12.07126v-.0121c-.0966 4.4708-1.8125 8.7725-4.8333 12.0833-3.0329-3.3108-4.74874-7.6125-4.8454-12.0833h-.01209c.08459-4.48291 1.80039-8.78458 4.82129-12.09541z" stroke="url(#d)"/></g></svg>