<svg width="100" height="100" viewBox="0 0 100 100" xmlns="http://www.w3.org/2000/svg">
  <!-- Background Chip -->
  <rect x="25" y="25" width="50" height="50" fill="#4A90E2" stroke="#0033A0" stroke-width="3" rx="8"/>
  
  <!-- Central Processing Unit -->
  <rect x="35" y="35" width="30" height="30" fill="#FFFFFF" stroke="#0033A0" stroke-width="2" rx="5"/>
  
  <!-- Pins -->
  <line x1="15" y1="35" x2="25" y2="35" stroke="#0033A0" stroke-width="2"/>
  <line x1="15" y1="50" x2="25" y2="50" stroke="#0033A0" stroke-width="2"/>
  <line x1="15" y1="65" x2="25" y2="65" stroke="#0033A0" stroke-width="2"/>
  <line x1="75" y1="35" x2="85" y2="35" stroke="#0033A0" stroke-width="2"/>
  <line x1="75" y1="50" x2="85" y2="50" stroke="#0033A0" stroke-width="2"/>
  <line x1="75" y1="65" x2="85" y2="65" stroke="#0033A0" stroke-width="2"/>
  <line x1="35" y1="15" x2="35" y2="25" stroke="#0033A0" stroke-width="2"/>
  <line x1="50" y1="15" x2="50" y2="25" stroke="#0033A0" stroke-width="2"/>
  <line x1="65" y1="15" x2="65" y2="25" stroke="#0033A0" stroke-width="2"/>
  <line x1="35" y1="75" x2="35" y2="85" stroke="#0033A0" stroke-width="2"/>
  <line x1="50" y1="75" x2="50" y2="85" stroke="#0033A0" stroke-width="2"/>
  <line x1="65" y1="75" x2="65" y2="85" stroke="#0033A0" stroke-width="2"/>
</svg>
