<svg fill="none" height="38" viewBox="0 0 98 38" width="98" xmlns="http://www.w3.org/2000/svg"><g fill="#616d7e"><path d="m23.3435 3.14942c.2012.47324.2917.98614.2647 1.49965-.027.5135-.1708 1.01407-.4205 1.4636-.5805.98806-1.5003 1.73144-2.5883 2.09169-1.5903.6099-3.3299.7158-4.9825.30334-1.6517-.36446-3.1776-1.1594-4.4227-2.30412l.4134-.45035c.7235.43889 1.5187.74648 2.3492.90857.9967.1787 2.0183.16514 3.0099-.03996l-.1299-.97495c-.1722-.94825-.0447-1.92656.3646-2.79903.386-.77677 1.0566-1.37489 1.8722-1.67.4069-.17328.8463-.257118 1.2884-.24584s.8766.11741 1.2742.31121c.7969.3871 1.41 1.07161 1.7073 1.90619z"/><path d="m6.12799 29.2248c-1.11032.0144-2.21697-.1304-3.28619-.43-.92856-.2693-1.82956-.6258-2.690927-1.0648l.037556-4.4448h.375565l1.267536 2.2412c.43719.8625 1.05528 1.6205 1.8121 2.2224.73899.5111 1.62411.7681 2.52192.7324 1.0259.0488 2.04044-.2326 2.89467-.8028.34842-.2376.63182-.5587.82436-.9339.19252-.3753.28812-.7927.27792-1.2144.0147-.3733-.0474-.7456-.18241-1.094-.13502-.3483-.34009-.6653-.60252-.9312-.84859-.69-1.84445-1.1757-2.91063-1.4196l-1.57268-.4807c-1.36393-.3566-2.60408-1.0801-3.58571-2.0919-.870696-.9441-1.3394822-2.1902-1.30696462-3.474-.00653544-.7978.16436862-1.587.50034262-2.3106.335975-.7236.828612-1.3634 1.442272-1.8732 1.57972-1.2399 3.56212-1.8519 5.56587-1.7182.92459-.0055 1.84643.101 2.74543.3173.8643.2138 1.6988.5339 2.4843.953l-.2244 4.0373h-.3756l-1.3069-2.3163c-.3454-.6673-.8219-1.258-1.40087-1.7369-.62198-.3792-1.34651-.5554-2.07312-.5042-.84868.0006-1.67898.2472-2.39048.7098-.35128.2039-.64091.499-.83825.854s-.29506.7568-.28281 1.1628c-.01337.3873.06617.7723.23196 1.1227.16579.3503.41302.6559.72104.8912.85783.6103 1.80914 1.0771 2.81674 1.3821l1.68065.4854c1.47844.356 2.81814 1.1425 3.84954 2.26.7793.9802 1.1891 2.2033 1.1577 3.4552.0233.8481-.1601 1.6892-.5343 2.4506-.3743.7615-.9282 1.4204-1.6139 1.92-1.7744 1.1956-3.89317 1.7733-6.02881 1.6441zm9.78721-.5559v-.3755l.523-.1493c.4128-.0916.778-.3306 1.0272-.6723.2036-.3643.3012-.7783.2816-1.1952v-11.6914c.0282-.4116-.0701-.8221-.2816-1.1764-.2618-.3038-.6287-.4973-1.0272-.5418l-.523-.1117v-.3756l6.8353-2.2073.3756.3755-.1118 5.3049v10.4595c-.0191.4166.0788.8303.2827 1.1943.2385.3355.5897.5741.9896.6722l.3755.1118v.3755zm18.5276-6.4672c-1.5026.0448-2.9961-.2478-4.3707-.8563v1.2675c-.0286.3368.0771.6711.2942.9301s.5279.4215.8645.452l7.023 1.307c1.0821.1995 2.1446.4932 3.1754.8779.8752.3128 1.6585.8392 2.2788 1.5313.6086.7668.9143 1.7305.8591 2.7079-.0033 1.2296-.4248 2.4216-1.1953 3.3801-.9338 1.1328-2.1523 1.9967-3.5303 2.5031-1.8573.6871-3.8295 1.0107-5.809.953-1.6044.0543-3.207-.1538-4.7443-.6159-.9652-.2749-1.8288-.8261-2.4844-1.5859-.4638-.5851-.7201-1.3077-.7286-2.0543.0256-.9742.3446-1.918.9154-2.7078.5848-.8848 1.3562-1.6309 2.26-2.1858-.6586-.2188-1.2415-.6203-1.6807-1.1577-.3369-.4396-.5206-.9775-.5229-1.5314-.001-.4942.1348-.979.3924-1.4008.2828-.4664.6011-.9102.9521-1.3276l1.2328-1.569c-.8728-.4814-1.5916-1.1998-2.0734-2.0724s-.707-1.8636-.6495-2.8587c-.0262-.826.1331-1.6473.466-2.4037.3329-.7563.8311-1.4284 1.4579-1.967 1.2825-1.1204 3.1691-1.6806 5.6597-1.6806 1.1307-.0195 2.2578.1315 3.3435.4478.8702.252 1.6775.6849 2.3689 1.2704.7744-.1182 1.5326-.3249 2.2599-.6159.7026-.2819 1.3528-.6796 1.9239-1.1765l.523.3756v1.905h-4.2252c.9219 1.0652 1.4028 2.442 1.3446 3.8496.019.8154-.1433 1.6249-.4754 2.3699-.332.745-.8255 1.4069-1.4447 1.9378-1.2832 1.1342-3.1701 1.7013-5.6607 1.7013zm-.0376-.7511c.444.025.8858-.0778 1.2732-.2961s.7041-.543.9126-.9358c.5511-1.2959.7879-2.7038.6911-4.1087.1025-1.3871-.1347-2.7784-.6911-4.0532-.2066-.3739-.5139-.6823-.887-.8902-.3731-.208-.797-.3071-1.2237-.2863-.4274-.014-.8501.0923-1.22.307s-.672.5289-.8719.907c-.5671 1.2852-.8108 2.6897-.7098 4.0909-.0949 1.3897.1299 2.7827.6573 4.072.1923.3784.4903.693.8577.9056.3674.2127.7886.3142 1.2126.2925zm-5.5687 10.3515c-.0436.6217.0567 1.245.2931 1.8217.2365.5766.6027 1.0909 1.0702 1.503 1.2713.8517 2.794 1.247 4.319 1.121 1.6194.1048 3.236-.2437 4.6683-1.0065.4925-.2894.8983-.7057 1.1751-1.2055.2768-.4997.4144-1.0646.3985-1.6356.0108-.3203-.0528-.6387-.1857-.9303-.133-.2916-.3316-.5484-.5804-.7504-.7759-.5289-1.6682-.8623-2.6008-.9718l-6.7611-1.2665-.5981-.1493c-.3622.5248-.6513 1.0965-.8591 1.6994-.2123.5668-.3269 1.1656-.339 1.7708zm17.2986-3.1332v-.3755l.5229-.1493c.3995-.0758.7542-.3032.9897-.6347.2052-.3652.3144-.7764.3173-1.1953v-11.6951c.0314-.4207-.0575-.8418-.2563-1.214-.2515-.3066-.614-.5013-1.0084-.5417l-.5634-.1493v-.3756l6.3846-2.167.3756.3756.2986 2.5397c.8324-.8302 1.7813-1.5349 2.8167-2.0919 1.0118-.5607 2.1491-.8563 3.3059-.8591 1.0098-.049 2.0113.2047 2.8759.7286.7762.5576 1.3525 1.3499 1.6441 2.26.9289-.892 1.9946-1.6296 3.1566-2.1849 1.0285-.5103 2.1579-.7845 3.3059-.8027.7026-.0599 1.4101.0217 2.0806.2399.6706.2182 1.2906.5686 1.8234 1.0304.9267 1.1158 1.3764 2.5519 1.2516 3.997v10.9449c-.0385.4167.0771.833.3248 1.1702.2478.3372.6106.5719 1.0197.6597l.4141.1146v.3755h-8.6287v-.3755l.3756-.1118c.3998-.0981.7511-.3367.9896-.6722.2037-.3643.3013-.7784.2817-1.1953v-11.434c.083-.761-.1176-1.5259-.5633-2.1483-.2446-.2123-.5295-.373-.8376-.4726-.3082-.0995-.6332-.1358-.9558-.1067-.6529.0014-1.2972.1483-1.8862.43-.6954.343-1.3423.7765-1.9239 1.2892.1297.4252.2112.8636.2432 1.3069.0376.4732.0563.9712.0563 1.4938v9.6708c-.0287.4149.0907.8264.3369 1.1615.2462.335.6032.5719 1.0077.6685l.3352.1202v.3755h-8.6662v-.3755l.523-.1493c.3961-.0976.746-.33.9896-.6573.2053-.3568.3031-.7653.2816-1.1764v-11.3928c.0691-.7509-.1221-1.5028-.5417-2.1294-.2434-.234-.535-.412-.8543-.5216s-.6587-.1482-.9944-.1131c-.5986.0064-1.1872.1538-1.7182.43-.6488.3389-1.2515.7595-1.7934 1.2516v12.5138c-.0412.4116.0686.8243.3091 1.1609.2405.3367.5951.5745.9979.669l.3352.1146v.3755zm37.7659.5634c-1.323.0416-2.6164-.3962-3.6421-1.2328-.5009-.4407-.8941-.9903-1.1493-1.6068-.2552-.6164-.3657-1.2831-.3229-1.9489.0324-.6397.2109-1.2634.5218-1.8235.3108-.56.7458-1.0414 1.2715-1.4073 1.6751-1.1821 3.6098-1.9443 5.641-2.2224.3987-.0745.8469-.1555 1.3445-.2432.4977-.0876 1.0206-.1815 1.569-.2816v-2.951c.0925-1.2219-.1191-2.4477-.616-3.5679-.1952-.3321-.4788-.6036-.819-.7843-.3403-.1807-.724-.2634-1.1086-.2391-.2645-.0128-.5287.0325-.7739.1325-.2452.1001-.4656.2526-.6457.4468-.4204.5833-.6547 1.2801-.6723 1.9989l-.0751.4113c.0276.8527-.2505 1.6871-.784 2.3529-.2227.2424-.4945.4347-.7972.5642-.3026.1295-.6294.1932-.9585.1869-.5934.0201-1.1707-.1948-1.6065-.5981-.2136-.2074-.3807-.458-.4901-.7349-.1095-.277-.1587-.5741-.1446-.8715-.0102-.4799.0791-.9566.2624-1.4002s.4564-.8444.8023-1.1772c.796-.7462 1.7633-1.285 2.8168-1.5689 1.2379-.358 2.5214-.5342 3.8101-.523 1.8552-.1196 3.688.4602 5.1368 1.6253 1.208 1.0835 1.8121 2.8455 1.8121 5.2861v8.2558c0 1.1205.5229 1.6807 1.5689 1.6807h.8215l.3362.2986c-.4241.5533-.9491 1.0214-1.5474 1.3792-.7358.3626-1.5526.5298-2.3717.4855-.9279.0513-1.845-.2197-2.5961-.7671-.638-.5151-1.0798-1.2337-1.2515-2.0356-.697.7525-1.4666 1.4343-2.2975 2.0356-.9014.5931-1.9671.8862-3.0449.8375zm2.2787-2.2788c.4895.0022.9715-.1199 1.4009-.3549.5505-.3173 1.0696-.6864 1.5501-1.1023v-6.2756l-.7511.1492c-.2504.0501-.5368.0999-.8591.1493-1.038.2391-1.9887.7629-2.7454 1.5126-.3498.384-.6203.8334-.7959 1.3222-.1757.4889-.253 1.0077-.2275 1.5265-.0633.8281.1904 1.6494.7098 2.2975.2141.2443.4785.4394.7751.572.2965.1326.6183.1994.9431.196z"/></g></svg>