<svg fill="none" height="30" viewBox="0 0 106 30" width="106" xmlns="http://www.w3.org/2000/svg"><g fill="#616d7e"><path d="m36.4928 14.8153c-.0138-1.1209.209-2.2322.6539-3.2612.4231-.9681 1.0491-1.83405 1.8357-2.53938.8261-.72991 1.7887-1.2888 2.8321-1.64431 1.1813-.40074 2.4224-.59694 3.6697-.58015 1.2446-.01448 2.4826.18286 3.6611.58358 1.0469.35418 2.0128.91314 2.8415 1.64432.7866.70533 1.4126 1.57134 1.8357 2.53944.4449 1.0289.6678 2.1402.6539 3.2612.0131 1.128-.2097 2.2464-.6539 3.2834-.4226.9771-1.0484 1.853-1.8357 2.5695-.8273.7397-1.7931 1.3079-2.8415 1.6718-1.1764.4105-2.4153.6129-3.6611.5981-1.2475.0148-2.4879-.1885-3.6654-.6007-1.0452-.366-2.0077-.935-2.8321-1.6744-.7886-.7155-1.4159-1.5909-1.84-2.5677-.4442-1.037-.6669-2.1554-.6539-3.2835zm3.1882 0c-.0116.7537.1376 1.5013.4377 2.1927.2812.6358.6963 1.2034 1.2169 1.6641.5386.4705 1.1639.8311 1.8409 1.0616.7426.2536 1.523.3793 2.3077.3716.7848.0074 1.5651-.1185 2.3077-.3725.6756-.2295 1.2994-.59 1.8357-1.0607.5187-.4625.9334-1.0296 1.2169-1.6641.3035-.6906.4545-1.4385.4429-2.1927.0123-.751-.1388-1.4956-.4429-2.1824-.2827-.6253-.6979-1.1816-1.2169-1.6306-.5385-.4581-1.1624-.8049-1.8357-1.02038-.7451-.24195-1.5243-.36221-2.3077-.35616-.7832-.00744-1.5624.11137-2.3077.35187-.6746.21627-1.3.56297-1.8409 1.02037-.5209.4472-.9365 1.004-1.2169 1.6306-.3013.689-.4505 1.4348-.4377 2.1867zm17.9622-3.9623h2.9771v1.7095c.6527-.4869 1.3498-.9113 2.082-1.2675.6986-.3433 1.4297-.6162 2.1824-.8145l.8754 2.7257c-1.0431.0882-2.0643.3492-3.0217.7724-.8368.3737-1.5651.9532-2.1172 1.6846v7.057h-2.978zm11.8973-1.61943c-.2718.0039-.5423-.03847-.7999-.1253-.2225-.07538-.4289-.19182-.6084-.34328-.1632-.13839-.2951-.3098-.3871-.50291-.0902-.1901-.1366-.39804-.1356-.60846-.0017-.21382.0446-.42529.1356-.61877.0912-.19215.2233-.36203.3871-.49776.1807-.14829.3869-.26256.6084-.33727.2576-.08683.5281-.1292.7999-.1253.2749-.00434.5485.03803.8093.1253.2215.07471.4277.18898.6084.33727.1638.13573.2959.30561.3871.49776.091.19348.1373.40495.1356.61877.0009.21042-.0454.41836-.1356.60846-.092.19311-.224.36452-.3871.50291-.1796.15146-.3859.2679-.6084.34328-.2608.08727-.5344.12964-.8093.1253zm-1.4856 1.61943h2.9771v11.8672h-2.9771zm6.0744 5.9336c-.0064-.826.1694-1.6432.5149-2.3935.3481-.7483.8519-1.4137 1.4778-1.9516.6844-.5816 1.4727-1.0286 2.3232-1.3173.9857-.3342 2.0213-.4973 3.062-.4823 1.0408-.0147 2.0764.1487 3.0621.4831.8505.2888 1.6388.7357 2.3232 1.3174.627.5381 1.1318 1.2041 1.4804 1.9533.3455.7502.5213 1.5675.5149 2.3935.0064.826-.1694 1.6432-.5149 2.3935-.3484.7481-.8526 1.4132-1.4787 1.9507-.6846.5811-1.4728 1.0274-2.3232 1.3156-.9857.3345-2.0213.4979-3.062.4832-1.0408.015-2.0764-.1482-3.0621-.4823-.8513-.289-1.6401-.7366-2.3249-1.3191-.6261-.5375-1.1302-1.2026-1.4787-1.9507-.3461-.7501-.5225-1.5674-.5166-2.3935zm3.1281 0c-.002.4661.0957.9273.2867 1.3525.1947.4309.4795.8151.835 1.1269.3927.3403.8468.6024 1.3379.7723.5772.1996 1.1848.2966 1.7954.2867.6106.0099 1.2182-.0871 1.7954-.2867.4911-.1699.9452-.432 1.3379-.7723.354-.3122.6372-.6964.8307-1.1269.191-.4252.2887-.8864.2867-1.3525.0022-.4689-.0955-.9329-.2867-1.3611-.1938-.4326-.4786-.8184-.835-1.1311-.3927-.3403-.8468-.6025-1.3379-.7724-.5772-.1995-1.1848-.2965-1.7954-.2866-.6106-.0099-1.2182.0871-1.7954.2866-.491.1699-.9452.4321-1.3379.7724-.3557.3128-.64.6986-.8333 1.1311-.1912.4282-.2889.8922-.2866 1.3611zm14.6435-5.9336h2.9771v1.0058c.7102-.4152 1.4732-.7328 2.2683-.944.6918-.1773 1.403-.2684 2.1172-.2712.8545-.0081 1.7045.1261 2.5145.3973.743.2483 1.425.6511 2.001 1.1818.58.5467 1.031 1.2145 1.323 1.9558.331.8628.492 1.7818.474 2.7059v5.8358h-2.967v-5.35c.009-.5932-.084-1.1835-.277-1.7447-.167-.4853-.438-.9281-.794-1.2976-.355-.3578-.784-.6324-1.258-.8042-.53-.1907-1.0905-.2844-1.6542-.2763-.3326.001-.6643.0347-.9903.1004-.3394.0673-.6724.1632-.9956.2866-.3282.1247-.6443.2796-.944.4626-.2961.18-.5725.3905-.8247.6282v7.995h-2.9737z"/><path d="m14.8924 29.7848c-2.9454 0-5.82473-.8734-8.27377-2.5098s-4.35784-3.9623-5.48501-6.6835c-1.12716737-2.7213-1.422086-5.7156-.84746-8.6045.574626-2.8888 1.99299-5.54237 4.07573-7.62511s4.73631-3.501104 7.62511-4.07573c2.8889-.574626 5.8832-.27970737 8.6045.84746 2.7212 1.12717 5.0471 3.03597 6.6835 5.48501s2.5098 5.32837 2.5098 8.27377c0 3.9497-1.569 7.7377-4.3619 10.5305-2.7928 2.7929-6.5808 4.3619-10.5305 4.3619zm0-2.9788c3.1598 0 6.1902-1.2552 8.4245-3.4896 2.2343-2.2343 3.4895-5.2646 3.4895-8.4244s-1.2552-6.19019-3.4895-8.4245-5.2647-3.48953-8.4245-3.48953-6.19016 1.25522-8.42447 3.48953-3.48953 5.2647-3.48953 8.4245 1.25522 6.1901 3.48953 8.4244c2.23431 2.2344 5.26467 3.4896 8.42447 3.4896zm2.9788-14.8924h-4.4678c-.395 0-.7738-.1569-1.0532-.4363-.2793-.2793-.4362-.6581-.4362-1.0531s.1569-.77389.4362-1.0532c.2794-.27932.6582-.43624 1.0532-.43624h5.9568c.3949 0 .7736.15687 1.0529.43611.2792.27924.4361.65793.4361 1.05283v5.9568c0 .395-.1569.7739-.4362 1.0532-.2794.2793-.6582.4362-1.0532.4362s-.7739-.1569-1.0532-.4362-.4362-.6582-.4362-1.0532zm-4.4678 4.4678h-4.46778c-.39502 0-.77386-.1569-1.05318-.4363-.27932-.2793-.43624-.6581-.43624-1.0531s.15692-.7739.43624-1.0532.65816-.4362 1.05318-.4362h5.95678c.3949 0 .7736.1568 1.0529.4361.2792.2792.4361.6579.4361 1.0528v5.9568c0 .395-.1569.7739-.4363 1.0532-.2793.2793-.6581.4362-1.0531.4362s-.7739-.1569-1.0532-.4362-.4362-.6582-.4362-1.0532z"/></g></svg>