<svg fill="none" height="18" viewBox="0 0 119 18" width="119" xmlns="http://www.w3.org/2000/svg"><path d="m0 17.6984v-17.398664h3.73967l5.48649 11.035764 5.41264-11.035764h3.7397v17.398664h-3.1492v-12.00508l-4.7976 9.51958h-2.4849l-4.80171-9.51958v12.00508zm24.1848 0v-17.398664h3.1533v17.398664zm8.9556 0v-17.398664h3.7396l5.4865 11.035764 5.4127-11.035764h3.7397v17.398664h-3.1492v-12.00508l-4.7976 9.51958h-2.4849l-4.7976-9.51958v12.00508zm32.2546.2983c-1.5776.0373-3.1359-.3563-4.5106-1.1392-1.2792-.7535-2.3267-1.8505-3.0261-3.1691-.7542-1.4436-1.1324-3.0573-1.099-4.68934-.0339-1.63023.3428-3.24243 1.0949-4.68521.6994-1.31858 1.7469-2.41553 3.0261-3.16904 1.3747-.78292 2.933-1.1764933 4.5106-1.13919463h7.7623c1.5119-.01138165 2.9998.38165563 4.3127 1.13919463 1.2829.74879 2.3315 1.84693 3.0262 3.16904.7456 1.4449 1.1193 3.05611 1.0866 4.68521.0339 1.62874-.3384 3.23994-1.0825 4.68524-.6955 1.3225-1.7452 2.4207-3.0293 3.169-1.3176.7393-2.7984 1.1311-4.3055 1.1392.1558 0-7.586.0042-7.7664.0042zm0-2.8584h7.791c.6977.0113 1.3898-.1291 2.0291-.4116.6394-.2824 1.2112-.7005 1.6767-1.2257 1.0337-1.2598 1.5568-2.8683 1.4639-4.50194.0921-1.63256-.4309-3.23984-1.4639-4.49879-.4818-.51977-1.0647-.93354-1.712-1.21544-.6474-.2819-1.3453-.42588-2.0502-.42294.163 0-7.5695 0-7.7336 0-.7347-.03191-1.4675.09832-2.1473.38163-.6798.2833-1.2904.71288-1.7892 1.25882-1.0402 1.25474-1.5684 2.86262-1.4772 4.49672-.092 1.63464.4358 3.24334 1.4762 4.49884.4988.5459 1.1093.9755 1.7892 1.2588.6798.2833 1.4126.4135 2.1473.3816zm27.3043 2.8584c-1.149.0229-2.2896-.2016-3.346-.6587-.9223-.4015-1.715-1.0559-2.2881-1.889-.5779-.8885-.878-1.932-.8611-2.9951h3.3214c.0159.7723.3293 1.5079.8734 2.0506.3042.2863.6627.5074 1.0539.6498.3911.1424.8068.2032 1.2219.1787.7143.0388 1.4196-.1766 1.9928-.6089.2398-.194.4314-.4418.5597-.7237s.1898-.5901.1795-.9002c.0173-.3088-.032-.6176-.1446-.9052-.1126-.2875-.2857-.5469-.5074-.7601-.507-.4388-1.0972-.7687-1.7345-.9694l-2.3127-.79534c-1.1376-.34863-2.1785-.96152-3.0395-1.78958-.3563-.39058-.6322-.8488-.8117-1.34802s-.2591-1.02951-.234-1.56004c-.0414-.93772.2128-1.86453.7258-2.64708.5153-.75038 1.2244-1.343579 2.0503-1.715014.9446-.42166 1.969-.6294997 3.0016-.60895286 1.0457-.02140914 2.0833.19076886 3.0384.62137886.8339.377348 1.5489.979288 2.0667 1.739868.5141.79042.7917 1.71379.7996 2.65951h-3.3665c-.0167-.61383-.268-1.19729-.7012-1.62802-.2479-.24348-.5433-.43218-.8673-.55413-.3241-.12196-.6696-.17448-1.0148-.15424-.6196-.03637-1.2325.14514-1.7346.51367-.2332.18167-.419.41815-.5412.68888-.1222.27074-.1771.56753-.1599.86457-.0125.25564.0294.511.1228.74893.0933.23793.236.45293.4184.63054.4313.38136.933.67279 1.4762.8575.6233.23198 1.3368.48054 2.1405.74566.8079.27808 1.59.6274 2.3373 1.04392.6847.3785 1.2675.92032 1.6976 1.57829.4543.759.6768 1.6366.6397 2.5228.0049.8929-.2335 1.77-.6889 2.5353-.4919.8051-1.1996 1.4529-2.0411 1.8682-1.0348.5035-2.1744.7478-3.3224.7126zm10.1607-.2983 6.299-17.398664h3.543l6.298 17.398664h-3.346l-1.378-4.0266h-6.716l-1.403 4.0266zm5.561-6.5121h4.994l-2.509-7.23285z" fill="#616d7e"/></svg>