<svg fill="none" height="22" viewBox="0 0 110 22" width="110" xmlns="http://www.w3.org/2000/svg"><g fill="#616d7e"><path d="m32.4006 21.136c-.6792.0306-1.3567-.0918-1.9823-.3582s-1.1834-.6699-1.6321-1.1808c-.9707-1.2697-1.4461-2.8493-1.3374-4.4439.0098-1.5216.2539-3.0327.7239-4.48.4305-1.43241 1.2002-2.73983 2.2438-3.81135.4932-.5037 1.0849-.90033 1.7382-1.16512.6533-.2648 1.3542-.39207 2.0589-.37387.8833-.02874 1.7608.15354 2.5596.5317.7011.36441 1.2956.90452 1.7254 1.56753h.1722l.8912-1.75491h3.3367l-.6658 3.68199-.4604 2.50253c-.5941 3.2974-.8912 5.0615-.8912 5.2923-.0057.1075.0134.2149.0558.3138.0424.099.1069.1869.1886.2569.1662.1355.3754.207.5898.2017h.8341l-.4889 2.7584c-.7428.3253-1.5483.4825-2.3589.4603-.7057.0432-1.4039-.1658-1.9698-.5897-.2397-.2166-.4253-.4864-.5419-.7877-.1167-.3013-.1611-.6257-.1297-.9472h-.1721c-.5128.7271-1.1939 1.3194-1.9851 1.7263-.7739.398-1.6324.6036-2.5026.5993zm1.5219-3.4242c.4258.0098.8482-.0778 1.2349-.2562.3868-.1784.7276-.4428.9966-.773.6004-.7201 1.0328-1.5649 1.266-2.473.2467-.8725.3772-1.7738.388-2.6804 0-1.93663-.8053-2.90493-2.4159-2.90493-.4384-.01602-.8745.07018-1.2739.25177-.3993.18159-.7509.4536-1.027.79452-.5891.72814-1.0024 1.58214-1.208 2.49584-.2231.9027-.339 1.8286-.3453 2.7584 0 1.8618.7958 2.7927 2.3875 2.7927zm14.0678-17.7118h3.9407l-3.6534 20.7955h-3.9436zm7.9956 0h3.9407l-3.6525 20.7955h-3.9407zm7.9099 0h3.9407l-.6658 3.70957h-3.9359zm-.8912 5.66613h3.9407l-2.6757 15.12937h-3.9407zm11.7669 15.46987c-1.6886.095-3.3706-.2783-4.8605-1.0786-.5275-.2893-.9667-.7164-1.2706-1.2357-.3038-.5193-.461-1.1113-.4548-1.713-.0069-.3834.0616-.7644.2017-1.1214h3.8256c-.0581.1365-.0876.2835-.0866.4318-.0097.266.0605.5287.2016.7544.1411.2256.3465.4038.5898.5116.614.2882 1.2872.4277 1.9651.4071.7453.0171 1.4871-.1048 2.1877-.3595.2636-.0696.4968-.2244.6633-.4403.1666-.2159.257-.4808.2574-.7534-.001-.2361-.0745-.4662-.2106-.6592-.1361-.1929-.3282-.3393-.5503-.4195-.7875-.3361-1.6001-.6102-2.4302-.8199-.8977-.2143-1.7814-.4834-2.6462-.8056-.679-.261-1.2892-.6742-1.7834-1.208-.5129-.5758-.7811-1.3289-.7477-2.0992-.0326-.75634.1302-1.50829.4728-2.18337.3425-.67508.8532-1.25051 1.4828-1.67081 1.4885-.95333 3.2343-1.42555 5.0004-1.35257 1.5498-.06357 3.0912.25766 4.4866.93501.505.21724.9365.57572 1.2426 1.03232.306.45661.4737.99191.4829 1.54155-.0013.42989-.0694.85698-.2017 1.26597h-3.8227l.0285-.28531c.0087-.21973-.0447-.43746-.154-.62824-.1094-.19078-.2703-.34688-.4643-.45039-.5298-.26637-1.1198-.39027-1.7121-.35955-.694-.02821-1.3859.09446-2.0279.35955-.2155.07258-.4039.20914-.5398.39149-.136.18235-.2131.40181-.2211.62911.0095.21993.0863.43164.22.60654s.3178.3045.5276.3713c.7423.3054 1.513.5367 2.3009.6905.9216.1991 1.8293.4577 2.7175.7743.7043.2588 1.3391.6771 1.8548 1.2222.5392.6029.8185 1.3943.7771 2.202.0637.8233-.0948 1.6486-.4591 2.3896-.3642.7411-.9208 1.3707-1.6116 1.8231-1.5842.9237-3.3991 1.3761-5.2315 1.3041zm13.8063 0c-1.0033.0976-2.0048-.2018-2.7898-.8342-.2807-.2874-.4999-.6291-.6441-1.0041-.1443-.375-.2105-.7755-.1948-1.1769.0742-.8885.199-1.772.3738-2.6462l1.148-6.58685h-1.8072l.5707-3.22162h1.812l1.4667-4.25649h3.2502l-.7762 4.25649h2.6176l-.5707 3.22162h-2.6185l-1.2375 7.01675c-.0817.3893-.1392.7832-.1722 1.1795-.0067.1173.0146.2345.062.342.0475.1075.1198.2022.211.2763.2321.1586.5108.2347.7914.2159h1.3801l-.4889 2.7584c-.3812.1303-.7704.2361-1.1652.3167-.4013.0899-.811.1377-1.2222.1427zm12.5122 0c-1.2137.0213-2.4136-.2554-3.4951-.8057-1.0023-.5126-1.848-1.2857-2.4483-2.2381-.6089-.9749-.9327-2.1007-.935-3.2501-.0083-.8386.0592-1.6761.2016-2.5025.2432-1.9923 1.1801-3.83524 2.6462-5.20581 1.6196-1.28859 3.6576-1.93383 5.7246-1.81198 1.227-.02203 2.441.25445 3.537.80564 1.007.51165 1.857 1.28715 2.459 2.24381.609.97491.932 2.10074.935 3.25014.008.8386-.059 1.6761-.202 2.5025-.244 1.9948-1.187 3.8387-2.66 5.2049-1.636 1.2883-3.689 1.9313-5.767 1.8072zm.285-3.2216c.556.0339 1.113-.0483 1.635-.2414s.999-.4928 1.399-.8801c.814-.9742 1.293-2.1844 1.366-3.4518.079-.5525.118-1.1101.115-1.6683.014-.4251-.059-.8486-.215-1.2443-.156-.3958-.391-.75535-.691-1.05661-.669-.58672-1.542-.8864-2.431-.83417-.556-.03391-1.112.04828-1.635.24136-.522.19307-.9987.49278-1.3989.88007-.8138.97425-1.2927 2.18445-1.3659 3.45185-.0791.5525-.1176 1.1101-.1151 1.6683-.0141.4251.0591.8486.215 1.2443s.3912.7553.6915 1.0566c.6679.5882 1.5404.8896 2.4294.8389z"/><path d="m15.4896 21.1443c-1.6968.0633-3.384-.2822-4.9195-1.0072-1.25036-.644-2.22666-1.7173-2.74979-3.0229l3.98259-1.7121c.5612 1.4572 1.8509 2.1963 3.8351 2.1963 1.3243.0442 2.6279-.3368 3.72-1.0872 1.001-.721 1.6782-1.8068 1.8852-3.0228h4.1424c-.2273 1.5522-.8617 3.0166-1.8386 4.2441-.9324 1.1332-2.1348 2.0137-3.4965 2.5605-1.4511.5757-2.9999.8648-4.5609.8513zm10.7834-12.74376h-4.2802c.0556-.28389.084-.57246.0846-.86176.0282-.46085-.0522-.92189-.2347-1.34599-.1826-.42409-.4622-.79939-.8163-1.09566-.8107-.58981-1.799-.8842-2.8003-.83418-1.459-.05345-2.8848.44322-3.9949 1.39156l-3.8047-1.75206c.2978-.32205.6155-.62511.9512-.90741.9176-.74859 1.9665-1.31983 3.0932-1.68453 1.2589-.404371 2.5748-.60318 3.897-.588775 2.0602-.095711 4.0997.446725 5.8401 1.553265.7238.50773 1.3066 1.19109 1.6938 1.98589.3872.79481.566 1.67498.5196 2.55786-.0092.52995-.0588 1.05842-.1484 1.58084z"/><path d="m.639187 14.7073 12.719113-4.538-11.0888-4.53803.63918-3.64299 14.06122 6.26347-.7353 4.05865-16.2346 6.2968z"/><path d="m.639187 14.6943 12.719113-4.5381 3.0256 1.2413-.1493.8998-16.2346 6.2958z"/></g></svg>