<svg fill="none" height="21" viewBox="0 0 100 21" width="100" xmlns="http://www.w3.org/2000/svg"><g fill="#616d7e"><path d="m61.5271 20.5874c-1.8234.0549-3.6038-.5606-5.0047-1.729-.6832-.614-1.2194-1.3735-1.5692-2.2228-.3499-.8493-.5043-1.7667-.4518-2.6838v-13.071186c-.0112-.085071-.0028-.171552.0247-.252861.0274-.08131.0731-.155488.1336-.216347.0605-.06086.1342-.107185.2153-.135103s.1676-.037227.2527-.026473h3.2998c.0851-.010754.1716-.001445.2527.026473.0812.027918.1547.074243.2152.135103.0605.060859.1063.135037.1338.216347.0274.081309.0358.16779.0245.252861v11.777686c-.053 1.0669.2899 2.1162.9629 2.9458.3391.3704.7561.6607 1.2209.8508.4648.19.9659.2749 1.4674.2483.5218.0226 1.0425-.0637 1.5293-.2529.4867-.1892.9289-.4771 1.2984-.8462.362-.397.6421-.862.8242-1.3675.1821-.5054.2625-1.0417.2368-1.5783v-11.777686c-.0113-.085071-.0029-.171552.0245-.252861.0274-.08131.0732-.155488.1337-.216347.0605-.06086.1342-.107185.2154-.135103.0811-.027918.1676-.037227.2527-.026473h3.2595c.0853-.011226.1721-.002147.2536.02556s.1556.073272.2164.13419.1068.135712.1344.21726c.0276.081547.036.168439.0247.253774v18.803986c.0107.085.0018.1718-.0261.2528-.0278.0811-.0739.155-.1346.2155-.0608.0604-.1346.1057-.2158.1332s-.1676.0358-.2526.0247h-3.2595c-.085.0118-.1716.0045-.253-.0228-.0813-.0273-.1553-.0735-.216-.1342s-.1064-.1341-.1337-.2155c-.0273-.0813-.0354-.1687-.0236-.2537v-1.0206c0-.1028-.0337-.171-.0982-.1972-.0127-.0054-.0263-.008-.0401-.0082-.0505 0-.0935.0418-.1365.1269-.585.6869-1.3238 1.226-2.1564 1.5737-.8326.3478-1.7355.4949-2.6353.4282zm21.9455-.0375c-1.4787.0281-2.9497-.2191-4.3382-.7284-1.1215-.4011-2.117-1.0912-2.8857-2.001-.6595-.8023-1.0203-1.8095-1.0208-2.8481v-.1972c-.0107-.085-.0017-.1709.0262-.2519.0278-.0811.0739-.155.1346-.2155.0608-.0604.1346-.1057.2158-.1332.0812-.0276.1676-.0367.2526-.0256h3.1408c.4235 0 .6291.0934.6291.2757v.272c.0191.3531.1283.6961.3171.995.1888.299.4511.544.7617.713.8159.5108 1.7665.7648 2.7285.7284.8963.0362 1.7836-.1915 2.5519-.6545.2911-.1627.5347-.3988.7065-.6846.1719-.2858.2659-.6115.2731-.9448.0086-.2788-.0624-.5535-.2046-.7933-.1422-.2399-.3497-.4352-.5984-.5614-.8334-.4114-1.7083-.7324-2.6098-.9585l-1.4956-.4729c-1.1574-.3265-2.2863-.7473-3.3754-1.257-.897-.4304-1.6882-1.05227-2.3173-1.82297-.6514-.84802-.9848-1.89833-.9423-2.96678-.0249-.84831.1569-1.68951.5297-2.45194.3727-.76243.9253-1.42289 1.61-1.9243 1.6592-1.153924 3.6535-1.7269146 5.6722-1.6294487 1.4393-.0298014 2.8699.2308797 4.2064.7658867 1.109.440542 2.0781 1.172752 2.8043 2.119652.6619.89112 1.0132 1.97548 1.0002 3.08546-.0005.06572-.0168.12996-.0475.18805-.0308.05808-.0751.10778-.1292.14514-.1312.09498-.2906.14351-.4524.13693h-3.0211c-.4179 0-.6292-.0785-.6292-.2346v-.23552c-.0073-.34633-.1029-.68514-.278-.98406-.175-.29892-.4236-.54814-.7221-.7239-.8201-.49745-1.7708-.73688-2.7286-.68646-.867-.0359-1.7279.16036-2.494.56779-.291.15055-.5347.37863-.7042.65909-.1694.28045-.2579.60163-.2558.92928-.0036.30059.0796.59629.2396.85079.16.25449.39.45714.6624.58423.969.46145 1.9827.82317 3.025 1.07899l.902.23461c1.203.34533 2.3833.76467 3.5344 1.25609.9262.40949 1.7449 1.02849 2.392 1.80749.6784.8582 1.0272 1.9303.9834 3.0233.0279.855-.1585 1.704-.5424 2.4684-.3838.7644-.9528 1.4206-1.6552 1.9088-1.7334 1.135-3.7812 1.6929-5.8507 1.5938zm-75.41781 0c-.09348 0-.20379 0-.3599 0v-3.4186c.11498 0 .21967.0073.32156.0073.89632.0362 1.78356-.1915 2.55185-.6545.2909-.163.5343-.3989.7061-.6847.1718-.2857.2661-.6115.2737-.9448.0085-.2787-.0624-.5534-.2046-.7932-.1422-.2399-.3498-.4343-.5984-.5605-.83592-.4118-1.71336-.7336-2.6174-.9594l-1.49001-.4729c-1.15845-.326-2.28831-.7459-3.37826-1.2561-.89593-.4303-1.68587-1.05321-2.313519-1.82389-.651332-.84803-.9848016-1.89742-.94229642-2.96587-.02483988-.84831.15705242-1.69042.52979942-2.45285s.925226-1.42289 1.609936-1.9243c1.65898-1.154441 3.65341-1.7274831 5.67215-1.6294516 1.43772-.0286627 2.8666.2319886 4.2018.7658876 1.1084.441524 2.0773 1.174464 2.8043 2.120564.6619.89112 1.0132 1.97457 1.0001 3.08455-.0005.06572-.0167.12996-.0475.18805-.0307.05808-.0751.10778-.1291.14514-.1316.0942-.2907.14264-.4525.13693h-3.0211c-.4178 0-.6291-.0785-.6291-.23461v-.23551c-.0073-.34633-.1029-.68515-.278-.98406-.1751-.29892-.4237-.54814-.7222-.7239-.82001-.49746-1.77074-.73689-2.72852-.68647-.86704-.03662-1.72819.15968-2.49404.5678-.29156.15016-.53581.37768-.70576.65817-.16994.28049-.25884.60317-.25696.93111-.00343.30092.08012.59624.24065.85079.16052.25455.39108.45673.6641.58331.96766.46161 1.98003.82334 3.02122 1.079l.90487.2346c1.20204.34518 2.38154.76453 3.53154 1.2561.9274.40871 1.7473 1.02781 2.3948 1.80741.6784.8583 1.0273 1.9303.9834 3.0234.0279.8554-.1589 1.7048-.5435 2.4693-.3845.7645-.9545 1.4204-1.6578 1.9079-1.731 1.1321-3.7755 1.6882-5.84141 1.5883zm40.91091-.2391h-3.2997c-.085.0118-.1715.0045-.2529-.0228-.0813-.0273-.1553-.0735-.216-.1342s-.1065-.1341-.1338-.2155c-.0273-.0813-.0353-.1687-.0235-.2537v-18.803986c-.0113-.085071-.0029-.171552.0245-.252861.0274-.08131.0732-.155488.1337-.216347.0605-.06086.1341-.107185.2152-.135103.0812-.027918.1676-.037227.2528-.026473h3.2997c.0852-.010754.1716-.001445.2528.026473.0811.027918.1548.074243.2153.135103.0605.060859.1062.135037.1336.216347.0275.081309.0359.16779.0247.252861v18.803986c.0126.0853.0051.1727-.0218.2546-.027.082-.0726.157-.1334.2182-.0608.0613-.1351.1076-.2168.1351-.0818.0276-.1689.0357-.2544.0238zm-15.0758 0h-3.2998c-.085.0118-.1716.0045-.2529-.0228-.0814-.0273-.1553-.0735-.216-.1342s-.1065-.1341-.1338-.2155c-.0273-.0813-.0354-.1687-.0236-.2537v-18.803986c-.0112-.085071-.0028-.171552.0247-.252861.0274-.08131.0731-.155488.1336-.216347.0605-.06086.1342-.107185.2153-.135103s.1676-.037227.2527-.026473h3.2998c.0851-.010754.1716-.001445.2527.026473.0812.027918.1548.074243.2152.135103.0606.060859.1063.135037.1338.216347.0274.081309.0358.16779.0245.252861v1.530866c0 .10469.0252.16826.0785.19443.0098.00536.0207.00805.0319.00822.0439 0 .0869-.04189.128-.12415.3653-.59135.8453-1.10326 1.4117-1.506213.5664-.402955 1.2078-.688588 1.8862-.839829h2.4369c.3093.070237.6107.171306.8993.303069.1457.063343.2627.179294.3281.324064.0655.14477.0748.308829.0262.460079l-.6292 3.25799c-.0262.21126-.099.34294-.2177.39435-.0693.02859-.1439.04198-.2188.03926-.1039-.00156-.2075-.01472-.3085-.03926-.4088-.11693-.8331-.17045-1.2582-.15883-.2499-.00311-.4997.01029-.7478.04016-1.0296.02488-2.0117.43855-2.7491 1.1575-.3655.36724-.6518.80566-.8409 1.28805-.1891.48238-.277.99846-.2584 1.51625v10.95518c.013.0854.006.1725-.0207.2547-.0266.0822-.072.1576-.1327.2191-.0606.0615-.1348.1082-.2165.136-.0818.0279-.1689.0364-.2545.0247zm-9.6973 0h-3.2997c-.085.0118-.1716.0045-.253-.0228s-.1553-.0735-.216-.1342-.1064-.1341-.1337-.2155c-.0274-.0813-.0355-.1687-.0237-.2537v-18.803986c-.0112-.085071-.0028-.171552.0247-.252861.0274-.08131.0731-.155488.1336-.216347.0605-.06086.1342-.107185.2153-.135103.0812-.027918.1676-.037227.2528-.026473h3.2997c.0852-.010754.1716-.001445.2528.026473.0811.027918.1548.074243.2153.135103.0605.060859.1062.135037.1336.216347.0274.081309.0358.16779.0245.252861v18.803986c.0126.0853.0052.1727-.0218.2546-.0269.082-.0726.157-.1334.2182-.0607.0613-.135.1076-.2168.1351-.0817.0276-.1687.0357-.2542.0238z"/><path d="m96.3222 20.3562c-.349.0125-.697-.0454-1.0231-.1702-.3262-.1247-.6239-.3139-.8755-.5561-.2429-.2346-.4345-.517-.5624-.8296-.1279-.3125-.1895-.6482-.1807-.9858-.0009-.3354.0709-.667.2104-.972.1396-.305.3437-.5761.5982-.7947.4912-.4759 1.1481-.7424 1.8321-.7431.6992-.002 1.3726.2639 1.8817.7431.2586.2161.4665.4863.6092.7916.1426.3053.2164.6382.2162.9751.0046.3377-.0622.6725-.1959.9826-.1337.31-.3313.5884-.58.8169-.2566.2452-.5594.4371-.8907.5645-.3314.1274-.6847.1878-1.0395.1777z"/></g></svg>