<svg fill="none" height="28" viewBox="0 0 109 28" width="109" xmlns="http://www.w3.org/2000/svg"><g fill="#616d7e"><path d="m3.85265 22.5158 7.29405 4.863c.2844.1891.6183.2899.9598.2899s.6754-.1008.9597-.2899l7.2941-4.863c1.1864-.788 2.1592-1.8576 2.8315-3.1132.6722-1.2557 1.0231-2.6583 1.0211-4.0826v-13.58631c0-.4598-.1827-.900774-.5078-1.225904s-.7661-.507786-1.2259-.507786h-20.7455c-.45981 0-.900776.182656-1.225906.507786-.325129.32513-.50778585.766104-.50778585 1.225904v13.58631c-.00195782 1.4243.34886785 2.8269 1.02114185 4.0826.67228 1.2556 1.64507 2.3252 2.8315 3.1132zm-.39393-19.05709h17.29358v11.86129c.0024.8557-.2075 1.6986-.611 2.4531-.4034.7546-.9877 1.3973-1.7006 1.8706l-6.3367 4.2215-6.33466-4.2254c-.71233-.4729-1.29632-1.115-1.69972-1.8688-.4034-.7539-.61363-1.596-.61186-2.451z"/><path d="m10.3763 17.2914c.4583-.0007.8978-.1828 1.2222-.5066l6.9136-6.91746-2.4407-2.44546-5.6942 5.69422-2.23642-2.2355-2.44547 2.4455 3.45871 3.4587c.32443.3238.76388.5059 1.22228.5066z"/><path d="m38.1027 21.2956c-1.1089-.0107-2.2127-.1503-3.2892-.4161-.9443-.2016-1.8633-.5072-2.7402-.9111l.3852-3.5368c1.8625.9972 3.924 1.5662 6.0342 1.6653.757.0414 1.509-.1455 2.1585-.5364.2548-.1727.4606-.4084.5973-.6842.1368-.2758.1997-.5823.1828-.8896.0176-.4669-.135-.9242-.4295-1.2868-.3406-.3767-.763-.6703-1.2348-.8582-.5374-.2318-1.3956-.5557-2.5745-.9718-.9557-.3131-1.8789-.7179-2.7566-1.2088-.7018-.3975-1.2967-.9594-1.7337-1.6374-.4419-.74201-.6603-1.59582-.6289-2.45892-.0235-.71824.1191-1.4322.4168-2.08626.2977-.65405.7425-1.23053 1.2995-1.68451 1.4185-1.03902 3.1576-1.54539 4.9121-1.4303 1.0109.00054 2.0185.11393 3.0041.33807.9344.20642 1.8515.48464 2.7431.83217l-.3361 3.4067c-.9555-.42562-1.942-.77756-2.9511-1.05273-.8699-.23123-1.766-.34938-2.6661-.35155-.7853-.04768-1.5685.12336-2.2624.4941-.2468.14604-.4496.35604-.5869.60779-.1374.25176-.2041.53593-.1933.8225-.0171.43695.1315.86424.4161 1.19625.3158.33902.7017.60523 1.1307.78016.4765.20804 1.1828.45942 2.119.75413 1.6688.4391 3.2307 1.2135 4.5904 2.276.4848.4451.8656.9915 1.1153 1.6005.2497.6089.3622 1.2654.3295 1.9227.0141 1.3863-.5185 2.7223-1.4823 3.7188-.9902 1.0575-2.8465 1.5863-5.569 1.5863zm12.1184-.104c-.4964.014-.9906-.0721-1.4531-.2531s-.8838-.4533-1.2389-.8006c-.3666-.3744-.6517-.8207-.8373-1.3107-.1857-.49-.2679-1.0131-.2414-1.5364-.0175-.5164.084-1.03.2966-1.5009.2126-.471.5306-.8867.9295-1.2152.8405-.6979 1.8285-1.1958 2.8895-1.4563 1.0454-.2767 2.118-.4382 3.1986-.4816.0267-.6012-.1832-1.189-.5846-1.6374-.5041-.3761-1.1296-.5521-1.7559-.4941-.5671-.0006-1.1315.0782-1.6768.2341-.6492.1967-1.2801.449-1.8859.7541l-.2889-2.62652c1.4679-.73697 3.0847-1.12898 4.7271-1.14616.6377-.04295 1.2774.04608 1.8792.26151.6017.21544 1.1526.55266 1.6181.99059.9027 1.11988 1.3363 2.54598 1.2097 3.97878v3.5108c-.0134.4744.0173.949.0915 1.4177.0097.1082.0425.2129.0964.3072.0539.0942.1274.1757.2157.2389.235.0939.4881.1341.7407.1176h.416l-.2841 2.6477h-1.1673c-.6227.0207-1.2403-.1179-1.7944-.4026-.4723-.2548-.8614-.64-1.1211-1.1096-.4692.5048-1.0558.886-1.7077 1.1096-.7267.2695-1.4961.4059-2.2712.4026zm1.3485-2.4705c.3848-.0116.7641-.0953 1.1182-.2466.4049-.1577.7757-.3919 1.0922-.6896v-2.9646c-.9557.0304-1.8946.26-2.7565.6742-.3424.1269-.6391.3531-.8522.6495-.2131.2965-.3329.6499-.3441 1.0148-.0186.2154.0089.4323.0807.6362.0717.204.1861.3903.3354.5466.3823.284.8558.4174 1.3301.3747zm13.9427 8.7599c-1.529.0738-3.0489-.2726-4.3949-1.0017-.4953-.2599-.9098-.6506-1.1984-1.1297-.2887-.479-.4405-1.028-.439-1.5873.0292-.6567.2419-1.292.6141-1.8338.3722-.5417.8889-.9682 1.4914-1.231-.3407-.1746-.6273-.4387-.8289-.7641-.2016-.3253-.3107-.6996-.3154-1.0823-.0043-.3846.1194-.7596.3516-1.0662.2492-.3246.5739-.5835.9458-.7542-.6481-.4555-1.1639-1.0746-1.4948-1.7943-.3425-.7516-.5148-1.5695-.5047-2.3954-.0107-.9095.2037-1.8075.6241-2.614.4138-.78649 1.0459-1.43668 1.8204-1.87243.8672-.47654 1.8454-.7142 2.8346-.68866 1.0494-.02705 2.0826.26297 2.9646.83218.3758-.18441.7736-.32003 1.1837-.40357.525-.11583 1.0613-.17237 1.5989-.16855h.8321l-.208 2.02841h-1.1751c-.2947 0-.5374.00867-.7281.02601.5365.85571.8079 1.85101.7801 2.86061.0109.9076-.1986 1.8042-.6106 2.613-.4046.7881-1.0315 1.4401-1.803 1.8753-.8672.4766-1.8454.7142-2.8346.6887-.4648-.0085-.9272-.0695-1.3783-.1821-.0857.0303-.1597.0868-.2116.1615-.0518.0746-.0789.1637-.0773.2546.006.1189.0476.2332.1194.3282s.1704.1662.2832.2044c.4371.1728.8967.2824 1.3648.3256l2.2364.2889c2.982.3988 4.4729 1.6557 4.4729 3.7708.0127.6242-.1349 1.2412-.4286 1.7921-.2938.5509-.7238 1.0173-1.2492 1.3546-1.3913.8512-3.0092 1.2574-4.6376 1.1644zm-.4941-11.8546c.3266.0186.6531-.0386.9539-.1673s.5677-.3252.7798-.5743c.4362-.5888.651-1.3124.6068-2.0438.0424-.7314-.1741-1.4543-.6116-2.0419-.2122-.2491-.4791-.4457-.7798-.5743-.3008-.1287-.6273-.186-.9539-.1674-.3299-.0199-.6599.0367-.9643.1653-.3044.1287-.575.3259-.7906.5764-.4375.5876-.6541 1.3105-.6116 2.0419-.0422.731.1743 1.4536.6116 2.0409.2158.2517.487.4499.7924.579.3053.1292.6364.1859.9673.1655zm.6241 9.414c2.2191 0 3.3287-.5458 3.3287-1.6374.0125-.2151-.0342-.4295-.1351-.6198-.1009-.1904-.252-.3495-.437-.4599-.5936-.3001-1.2369-.4894-1.8984-.5586l-2.8606-.4171c-.4101.1035-.7758.3365-1.0429.6645s-.4212.7333-.4394 1.1559c-.0048.298.0792.5906.2413.8407s.3949.4462.6689.5636c.8106.3523 1.6917.5125 2.5745.4681zm7.7506-22.31261h3.2246v3.22466h-3.2246zm0 5.20107h3.2246v13.00264h-3.2246zm10.4792 13.26274c-.4804.0338-.9624-.0385-1.4117-.2116-.4494-.1731-.8553-.4428-1.1889-.7901-.588-.6623-.9038-1.5225-.8842-2.4079v-7.2035h-1.8463l.2889-2.65253h1.5603v-2.86059l3.2247-.33807v3.20155h2.8606v2.65254h-2.8635v5.8753c-.0196.4845.0198.9697.1175 1.4447.0293.1225.0904.2351.1772.3265.0867.0913.1961.1581.3169.1936.448.0979.9067.1374 1.3648.1175h.8842l-.2861 2.6526zm8.9458 0c-.4803.0339-.9622-.0382-1.4116-.2111s-.8553-.4425-1.1889-.7896c-.588-.6624-.9039-1.5225-.8842-2.4079v-7.2035h-1.8464l.2889-2.65257h1.5604v-2.86059l3.2246-.33807v3.20059h2.8606v2.65254h-2.8615v5.8753c-.02.4845.0191.9697.1165 1.4447.0293.1225.0904.2351.1772.3265.0867.0913.1961.1581.3169.1936.4483.0979.9074.1374 1.3658.1175h.8842l-.288 2.6526zm7.5131 0c-.4963.0135-.9897-.0729-1.4515-.2539s-.8825-.453-1.2371-.7998c-.3666-.3744-.6517-.8207-.8374-1.3107-.1856-.49-.2678-1.0131-.2414-1.5364-.018-.516.0827-1.0293.2945-1.5003.2117-.4709.5288-.8869.9268-1.2158.8406-.6979 1.8285-1.1958 2.8891-1.4563 1.046-.2767 2.118-.4382 3.199-.4816.027-.6012-.183-1.189-.585-1.6374-.504-.3761-1.129-.5521-1.755-.4941-.568-.0007-1.133.0781-1.6782.2341-.6488.1967-1.2795.449-1.885.7541l-.2889-2.62652c1.4698-.73715 3.0891-1.12853 4.7331-1.14424.638-.04308 1.278.04588 1.88.26132.601.21544 1.152.55274 1.618.99079.903 1.11985 1.336 2.54595 1.21 3.97885v3.5107c-.014.4744.016.949.09 1.4178.01.1081.043.2129.097.3071.054.0943.127.1758.215.239.236.094.489.1341.742.1175h.416l-.287 2.6458h-1.17c-.623.0207-1.24-.1179-1.795-.4026-.471-.255-.86-.6401-1.12-1.1096-.467.5039-1.051.885-1.701 1.1096-.728.2701-1.499.4064-2.276.4026zm1.348-2.4705c.385-.0116.764-.0953 1.118-.2466.405-.1577.776-.3919 1.092-.6896v-2.9646c-.955.0304-1.894.26-2.756.6742-.343.1269-.639.3531-.852.6495-.213.2965-.3332.6499-.3444 1.0148-.0177.2164.011.434.0844.6383.073.2043.189.3906.34.5464.381.282.853.4146 1.325.3728z"/></g></svg>