<svg fill="none" height="26" viewBox="0 0 122 26" width="122" xmlns="http://www.w3.org/2000/svg"><g fill="#616d7e"><path d="m22.0107 5.17848h-.0548c-1.2741-.0065-2.534.26749-3.6903.80253s-2.1807 1.31801-3.0004 2.29336c-.8196-.97573-1.8439-1.75909-3.0002-2.29449s-2.41627-.80972-3.6905-.80347h-.0414c-2.22779-.02716-4.37577.82852-5.97465 2.38007-1.598881 1.55156-2.5186842 3.67292-2.55845 5.90042.0400076 2.2348.965612 4.3623 2.57341 5.915 1.60781 1.5527 3.76627 2.4035 6.00109 2.3656.6581.0006 1.31422-.0719 1.9563-.2163.0517-.0114.1035-.0301.1532-.0425.2546-.0621.5072-.1304.7514-.2142.148-.0508.2898-.1149.4348-.1739.1449-.059.2867-.1035.4254-.1739.2349-.1097.4637-.235.6883-.3654.0414-.0238.0859-.0445.1263-.0683.8162-.4937 1.545-1.119 2.157-1.8507.6125.7312 1.3413 1.3565 2.1571 1.8507.0414.0238.0849.0445.1263.0683.2246.1304.4534.2557.6883.3654.1387.0652.2836.1169.4265.1739.1428.0569.2857.1231.4337.1739.2453.0838.4968.1521.7525.2142.0507.0124.1035.0311.1521.0425.6421.1443 1.2982.2169 1.9563.2163 2.2348.0379 4.3933-.8129 6.0011-2.3656s2.5334-3.6802 2.5734-5.915c-.0398-2.2257-.9584-4.34541-2.5553-5.89637-1.5969-1.55097-3.7425-2.40728-5.9685-2.38205zm-.0548 13.45592c-.8191.0068-1.6296-.1673-2.3736-.5099-.7439-.3427-1.4031-.8454-1.9303-1.4723l-2.3889-2.8702-2.3879 2.8702c-.5274.6268-1.1867 1.1295-1.9309 1.4719-.7442.3425-1.55478.5164-2.37394.5092-1.4108.0362-2.77847-.488-3.80355-1.458s-1.62405-2.3067-1.66575-3.7173c.04143-1.4108.64032-2.7476 1.66546-3.71761 1.02514-.97004 2.39296-1.49423 3.80384-1.45774.81907-.00727 1.62964.16644 2.37384.50873.7441.34229 1.4035.8447 1.931 1.47132l2.3879 2.8703 2.3889-2.8703c.5273-.62667 1.1865-1.1292 1.9305-1.47166.7439-.34247 1.5544-.51642 2.3734-.50943 1.4108-.03649 2.7787.48771 3.8038 1.45775s1.624 2.30684 1.6654 3.71754c-.0414 1.4109-.6402 2.7478-1.6653 3.718-1.0252.9702-2.393 1.4946-3.8039 1.4584z"/><path d="m40.3047 25.9071v-19.61863h3.3816v2.34754c.4715-.78738 1.1409-1.43757 1.9417-1.8859.858-.50993 1.8391-.77552 2.8372-.76802.8748-.02468 1.7445.1412 2.5487.48616.8043.34495 1.524.86071 2.1091 1.51152 1.2841 1.51062 1.9395 3.45643 1.831 5.43613v.2236c.1048 1.9965-.5401 3.96-1.8083 5.5055-.5801.6657-1.3011 1.194-2.1106 1.5467-.8096.3526-1.6874.5208-2.5699.4924-1.0146.0208-2.0168-.2251-2.9065-.7131-.7905-.4279-1.4406-1.0748-1.8724-1.8632v7.2993zm7.3221-7.4059c.5404.0331 1.081-.061 1.5785-.2745.4976-.2135.9382-.5407 1.2865-.9551.7284-1.0446 1.0783-2.3067.9916-3.5772v-.2236c.0874-1.2877-.2951-2.5634-1.0765-3.59064-.3447-.4049-.7763-.72686-1.2627-.9419-.4863-.21505-1.0149-.31765-1.5464-.30018-.5484-.02159-1.0948.0786-1.5998.29337-.5051.21476-.9563.53876-1.3212.94871-.7993 1.01924-1.1931 2.29834-1.1054 3.59064v.2236c-.0919 1.2877.2923 2.5643 1.0795 3.5875.3754.4102.8369.7322 1.3514.943.5144.2108 1.0692.3052 1.6245.2763zm10.3682 2.4035v-14.61623h3.3795v2.73879c.4042-.91279 1.0731-1.68319 1.9202-2.21137s1.8333-.78981 2.8308-.75099v3.15799c-1.2592-.07424-2.5087.25893-3.5638.95021-.4283.393-.7587.8807-.9649 1.4242-.2061.5435-.2822 1.1277-.2223 1.7058v7.6016zm11.1788 0v-14.61623h3.3794v14.61623zm3.0741-17.57859c-.1889.18263-.4121.32605-.6567.42198-.2447.09594-.5059.14248-.7686.13696-.2627.00552-.5239-.04102-.7685-.13696-.2446-.09593-.4678-.23935-.6568-.42198-.189-.17384-.339-.38576-.4402-.6218-.1011-.23604-.1511-.49083-.1467-.74759-.0063-.26115.0426-.5207.1438-.76154.1012-.240852.2522-.45754.4431-.635805.189-.182632.4122-.32605.6568-.421982.2446-.0959322.5058-.14247763.7685-.13695297.2627-.00552466.5239.04102077.7686.13695297.2446.095932.4678.23935.6567.421982.191.178265.342.394953.4431.635805.1012.24084.1502.50039.1438.76154.0045.25676-.0455.51155-.1467.74759s-.2512.44796-.4402.6218zm9.4139 17.85799c-1.5703.0917-3.1254-.3516-4.4114-1.2576-.5329-.4311-.9626-.9761-1.2576-1.5949s-.4478-1.2957-.4472-1.9812h3.186c.039.6676.3285 1.2959.8104 1.7596.606.4401 1.3496.6484 2.096.5869 1.7514 0 2.627-.6242 2.627-1.8725.0127-.2615-.047-.5215-.1727-.7513-.1257-.2297-.3123-.4203-.5394-.5508-.7581-.377-1.5765-.618-2.4179-.7121-1.4671-.1344-2.8782-.6289-4.1082-1.4398-.4115-.3778-.7312-.8446-.9346-1.3649-.2035-.5202-.2853-1.0801-.2392-1.6368-.0242-.63146.1117-1.25881.3951-1.82364.2834-.56482.7051-1.04877 1.2259-1.40679 1.1289-.78797 2.4803-1.19419 3.8566-1.15928 3.5027 0 5.4124 1.47187 5.7291 4.41561h-3.13c-.095-.57513-.3879-1.09901-.8281-1.48119-.522-.35216-1.1469-.51941-1.7751-.4751-.6053-.03552-1.2051.13165-1.7048.4751-.1963.14449-.3547.33433-.4618.55332-.107.21898-.1595.46062-.153.70427-.0111.2358.0431.4701.1565.6772s.2816.3789.4863.4966c.7484.3609 1.5508.5969 2.3755.6987 1.4708.1494 2.8916.6166 4.164 1.3693.4614.3663.8234.8426 1.0528 1.3851.2295.5425.3192 1.134.2607 1.7201.0371.6549-.0811 1.3092-.345 1.9096-.2638.6005-.6659 1.13-1.1734 1.5455-1.2611.8836-2.7858 1.3108-4.3225 1.211zm13.782-.0279c-.5943.0413-1.1908-.0363-1.7547-.2282-.564-.1919-1.084-.4944-1.5296-.8897-.396-.4303-.7005-.9367-.895-1.4882-.1945-.5516-.2749-1.1369-.2363-1.7205v-7.99279h-1.9563v-2.54316h1.9563v-3.20871h3.3815v3.20871h3.2088v2.54316h-3.2088v7.68539c0 1.2483.559 1.8724 1.6768 1.8724.5627.0158 1.1229-.0791 1.6489-.2794v2.6777c-.7363.256-1.5122.379-2.2916.3633zm5.4212-.2515v-14.61623h3.382v14.61623zm3.075-17.57859c-.189.18263-.413.32605-.657.42198-.245.09594-.506.14248-.769.13696-.262.00552-.524-.04102-.768-.13696-.245-.09593-.468-.23935-.657-.42198-.189-.17384-.339-.38576-.44-.6218s-.151-.49083-.147-.74759c-.006-.26115.043-.5207.144-.76154.101-.240852.252-.45754.443-.635805.189-.182632.412-.32605.657-.421982.244-.0959322.506-.14247763.768-.13695297.263-.00552466.524.04102077.769.13695297.244.095932.468.23935.657.421982.191.178265.342.394953.443.635805.101.24084.15.50039.143.76154.005.25676-.045.51155-.146.74759s-.251.44796-.44.6218zm4.415 17.57859v-14.61623h3.382v2.31959c.398-.78995 1.02-1.44514 1.788-1.88382.892-.51219 1.907-.76829 2.935-.74007.675-.03533 1.35.07205 1.981.31514s1.203.61642 1.68 1.09565c.988 1.21236 1.47 2.75924 1.345 4.31834v9.1914h-3.385v-8.8871c.071-.8685-.178-1.7332-.699-2.4314-.29-.2811-.638-.49646-1.019-.63147-.381-.13502-.786-.18653-1.189-.15104-.911-.03514-1.8.29109-2.473.90775-.333.33906-.592.74486-.758 1.19076-.167.446-.237.922-.206 1.3969v8.6056z"/></g></svg>