<svg fill="none" height="36" viewBox="0 0 112 36" width="112" xmlns="http://www.w3.org/2000/svg"><g fill="#616d7e"><path d="m23.082.103507c-.414-.103507-.9316-.103507-1.3456-.103507h-8.2805c-.414 0-.9316 0-1.3456.103507-6.83146.62104-12.1103 6.417423-12.1103 13.352393v8.2805c0 7.142 5.58937 13.0419 12.7313 13.4559h.7246 8.2805.7246c7.1419-.414 12.7313-6.3139 12.7313-13.4559v-8.2805c0-6.93497-5.2788-12.731353-12.1103-13.352393zm8.5911 21.632893c0 5.4859-4.4508 9.9367-9.9367 9.9367h-8.2805c-5.48588 0-9.93667-4.4508-9.93667-9.9367v-8.2805c0-5.48588 4.45079-9.93667 9.93667-9.93667h8.2805c5.4859 0 9.9367 4.45079 9.9367 9.93667z"/><path d="m25.3603 19.3593c-.3105-.207-.7245-.414-1.035-.414-.6211 0-1.1386.3105-1.5526.7246-1.2421 1.5526-3.2087 2.4841-5.1754 2.5876-2.0701-.1035-3.9332-1.035-5.1753-2.5876-.621-.8281-1.7596-.9316-2.58767-.3106-.72455.6211-.93157 1.6561-.41403 2.4842 1.9666 2.4842 4.9683 3.9333 8.0735 4.0368 3.2087-.1035 6.1069-1.5526 8.0736-4.0368.3105-.414.414-.8281.3105-1.3456.1035-.414-.1035-.9315-.5176-1.1386z"/><path d="m48.4409 25.881c-1.7596.1035-3.5192-.3105-5.0718-1.2421-.6211-.3105-.9316-.9315-.9316-1.5526 0-.3105.1035-.621.3105-.9315.207-.207.5176-.4141.8281-.3105.5175 0 .9315.207 1.3456.414.5175.3105 1.1385.5175 1.6561.621.621.207 1.2421.207 1.9666.207.621 0 1.3456-.1035 1.8631-.414.414-.207.7246-.621.7246-1.1386 0-.3105-.1035-.5175-.3106-.828-.3105-.207-.621-.414-.9315-.5176-.7246-.207-1.4491-.414-2.1737-.5175-1.3455-.207-2.5876-.7245-3.6227-1.4491-.7245-.621-1.1386-1.6561-1.1386-2.5876 0-.8281.207-1.6562.7246-2.2772.5175-.7245 1.2421-1.2421 2.0701-1.5526.9316-.414 1.9666-.621 3.0017-.5175.8281 0 1.5526.1035 2.2772.3105.7245.207 1.3455.5175 1.9666.828.5175.3106.9315.9316.9315 1.5526 0 .3106-.1035.7246-.3105.9316s-.5175.414-.828.414c-.207 0-.414 0-.6211-.1035-.3105-.1035-.5175-.207-.7245-.414-.414-.207-.9316-.414-1.4491-.621-.5175-.2071-1.0351-.2071-1.4491-.2071-.621 0-1.1386.1036-1.6561.4141-.414.207-.621.7245-.621 1.1385 0 .4141.207.9316.621 1.1386.7245.414 1.5526.6211 2.4842.7246 1.035.207 2.0701.5175 3.0016.9315.6211.3105 1.1386.7246 1.5526 1.2421.3106.621.5176 1.2421.5176 1.9666 0 1.2421-.6211 2.4842-1.6561 3.1052-1.3456.8281-2.7947 1.2421-4.3473 1.2421zm26.0837-14.6979c1.3456-.1035 2.5877.414 3.5192 1.3455.9316 1.2421 1.3456 2.7947 1.2421 4.4508v7.0385c0 .5175-.1035.9316-.5175 1.2421-.4141.3105-.8281.5175-1.3456.414-.5175 0-.9316-.1035-1.2421-.414s-.5175-.8281-.5175-1.2421v-7.0385c.1035-.828-.1035-1.5526-.5176-2.2771-.414-.5175-1.035-.7246-1.7596-.7246-.828 0-1.6561.3106-2.2771.9316-.6211.7246-.9316 1.6561-.8281 2.5877v6.4174c0 .5175-.1035.9316-.5175 1.2421-.3105.3105-.8281.414-1.2421.414-.5175 0-.9316-.1035-1.2421-.414s-.5175-.8281-.5175-1.2421v-7.0385c.1035-.828-.1035-1.5526-.5175-2.2771-.4141-.5175-1.0351-.7246-1.7597-.7246-.828 0-1.6561.3106-2.2771.9316-.6211.7245-.8281 1.6561-.8281 2.5877v6.4174c0 .5175-.207.9315-.5175 1.2421-.3105.3105-.8281.414-1.2421.414-.5175 0-.9315-.1035-1.2421-.414-.3105-.3106-.5175-.8281-.5175-1.2421v-10.8682c0-.5176.207-.9316.5175-1.2421.4141-.3105.8281-.414 1.2421-.414s.9316.1035 1.2421.414.5175.7245.5175 1.2421v.7245c.4141-.7245 1.0351-1.3456 1.7597-1.7596.828-.414 1.6561-.621 2.5876-.621 1.8631-.207 3.6228.9315 4.2438 2.6911.414-.828 1.0351-1.4491 1.8631-1.9666.8281-.5175 1.7596-.828 2.6912-.828zm10.7647 14.5944c-.5175 0-.9316-.1035-1.2421-.414s-.5175-.8281-.5175-1.2421v-11.1787c0-.5176.1035-.9316.5175-1.2421.3105-.3105.8281-.414 1.2421-.414.5175 0 .9316.1035 1.2421.414s.5175.828.5175 1.2421v11.0752c0 .5175-.207.9316-.5175 1.2421-.3105.414-.7246.5175-1.2421.5175zm0-17.0786c-.5175 0-1.1386-.20701-1.5526-.51753s-.621-.82806-.621-1.34559c0-.51754.207-1.03507.621-1.34559.414-.41403 1.0351-.51753 1.5526-.51753s1.1386.20701 1.5526.51753.621.82805.621 1.34559c0 .51753-.207 1.03507-.621 1.34559-.414.41402-.9316.51753-1.5526.51753zm7.8665 17.0786c-.5175 0-.9315-.1035-1.2421-.414-.3105-.3105-.5175-.8281-.5175-1.2421v-17.18212c0-.51753.1035-.93156.5175-1.24208.4141-.31052.8281-.51753 1.2421-.51753.5175 0 .9316.10351 1.2421.41403s.5175.82805.5175 1.24208v17.18212c0 .5175-.207.9316-.5175 1.2421-.3105.414-.7246.5175-1.2421.5175zm17.2852-4.0367c.311 0 .621.1035.828.414.208.3105.311.621.311 1.035 0 .6211-.414 1.2421-1.035 1.4491-.725.4141-1.449.7246-2.174.8281-.724.207-1.552.3105-2.38.3105-1.967.1035-3.934-.621-5.383-1.9666-1.3453-1.4491-2.0698-3.4157-1.9663-5.3824 0-1.3456.3105-2.5876.828-3.8297.5176-1.0351 1.3453-1.9666 2.3803-2.5877 1.035-.621 2.278-.9315 3.52-.9315 1.138 0 2.277.3105 3.312.828.931.5175 1.656 1.3456 2.173 2.3807.518 1.1385.829 2.3806.829 3.6227 0 .8281-.415 1.2421-1.139 1.2421h-8.488c0 1.035.414 2.0701 1.139 2.8982.725.621 1.76 1.035 2.795.9315.517 0 1.138-.1035 1.656-.207.517-.207 1.035-.414 1.552-.621.311-.207.725-.3105 1.242-.414zm-4.968-7.9701c-.828 0-1.76.3106-2.381.9316-.621.7245-1.035 1.6561-1.035 2.6912h6.521c0-.9316-.31-1.8632-.828-2.6912-.621-.7246-1.449-1.0351-2.277-.9316z" opacity=".999"/></g></svg>