<svg fill="none" height="28" viewBox="0 0 92 28" width="92" xmlns="http://www.w3.org/2000/svg"><path d="m1.09243 9.11624h9.10097l-3.01058 13.56226h3.26458l-1.09245 4.877h-9.100951l3.010561-13.5623h-3.26456zm3.88323-5.94484c-.00152-.42443.07834-.84492.23489-1.23685.1479-.3761.36603-.71793.64176-1.005722.27777-.287485.60589-.516955.96663-.676003.38143-.1681545.79206-.25275532 1.2063-.24852944.40018-.00255554.79645.08210384 1.16329.24852944.35645.160948.68059.390277.95547.676003.2763.289002.4969.630392.6497 1.005722.1605.39083.2418.81187.2389 1.23685.0029.42498-.0784.84602-.2389 1.23685-.1528.37533-.3734.71672-.6497 1.00572-.27488.28572-.59902.51505-.95547.676-.36684.16643-.76311.25108-1.16329.24853-.41424.00425-.82488-.08035-1.2063-.24853-.36074-.15905-.68886-.38852-.96663-.676-.27564-.28755-.49377-.62909-.64176-1.00489-.15666-.3922-.23651-.81297-.23489-1.23768zm7.62954 16.6233c-.0214-1.5867.2787-3.1604.8806-4.6185.5546-1.3333 1.3604-2.5375 2.3696-3.5415.9971-.982 2.1684-1.75268 3.4485-2.2691 1.316-.53598 2.7176-.8078 4.1308-.8011 1.077-.00839 2.1446.20941 3.1388.64038.9475.40819 1.8101 1.00352 2.54 1.75292.7231.7488 1.2985 1.6376 1.6936 2.6162.4142 1.0222.6236 2.1216.6155 3.2309.0163 1.5379-.2659 3.0635-.8297 4.4852-.5274 1.3245-1.3004 2.5279-2.2749 3.5415-.9799 1.0075-2.1441 1.8002-3.4238 2.3312-1.3566.5656-2.8064.8498-4.2678.8368-1.0949.0117-2.1806-.2093-3.1905-.6495-.9468-.4136-1.809-1.0117-2.54-1.7621-.7202-.7453-1.2922-1.6309-1.6832-2.6063-.4072-1.0084-.6139-2.0923-.6075-3.1861zm5.5736-.6586c-.0055.4872.0696.9718.2222 1.4324.1364.4123.3484.7933.6242 1.1217.2643.312.5902.5609.9555.7299.3799.1742.7911.2623 1.2063.2584.5971-.0008 1.1868-.1373 1.7278-.4001.5623-.267 1.0718-.6406 1.5025-1.1018.446-.48.8026-1.0417 1.0518-1.6569.2652-.6498.399-1.3494.3934-2.0553.0109-.5361-.0734-1.0697-.2485-1.5741-.146-.4128-.3699-.791-.6585-1.1125-.2676-.2928-.5938-.5207-.9554-.6678-.3709-.1496-.7656-.2252-1.1633-.2228-.6295-.0059-1.2521.1356-1.8218.4142-.5575.2736-1.0577.6587-1.4722 1.1333-.4243.4881-.7604 1.0519-.9922 1.6643-.2479.6483-.3731 1.3403-.3686 2.038zm16.439-10.02401h8.9975l-.2739 1.51271v-.0174c.4993-.3941 1.0323-.73966 1.5924-1.03221.5424-.27973 1.111-.50071 1.6968-.65943.5862-.1608 1.1901-.24156 1.7963-.24025.8921-.02046 1.7783.15542 2.6005.51612.7094.31765 1.3238.82777 1.7788 1.47707.4666.7006.7575 1.5113.8464 2.3586.1118 1.0577.0392 2.1278-.2142 3.1588l-1.4539 6.4924h3.2295l-1.0741 4.877h-9.0834l2.2063-9.9139c.0992-.4036.131-.822.094-1.2368-.0291-.3361-.1222-.6628-.2739-.961-.1339-.2578-.3355-.4707-.5813-.6139-.2596-.1461-.5512-.2197-.8464-.2137-.7605.0544-1.4984.2921-2.1554.6942-.4871.2655-.9507.5751-1.3854.9254l-2.5153 11.3197h-6.0044l3.0105-13.5623h-3.079zm24.3083 0h9.1073l-3.0138 13.56641h3.2646l-1.0916 4.877h-9.101l3.0145-13.5623h-3.2645zm3.8832-5.94483c-.0028-.42416.0757-.84463.2309-1.23686.1479-.37609.366-.71793.6418-1.005715.2777-.287485.6058-.516955.9666-.676003.3814-.1681773.792-.25277909 1.2063-.24852949.4002-.00255554.7964.08210389 1.1633.24852949.3564.160948.6806.390277.9555.676003.2763.288995.4968.630395.6497 1.005715.1604.39084.2417.81188.2389 1.23686.0028.42497-.0785.84601-.2389 1.23685-.1529.37533-.3734.71672-.6497 1.00571-.2749.28573-.5991.51506-.9555.67601-.3669.16642-.7631.25108-1.1633.24853-.4143.00425-.8249-.08036-1.2063-.24853-.3608-.15905-.6889-.38852-.9666-.67601-.2758-.28778-.4939-.62962-.6418-1.00571-.1533-.39123-.2304-.81023-.2269-1.23271zm19.3341 22.97994c-.4783.5039-1.048.904-1.676 1.1772-.8278.3617-1.7197.5376-2.6173.5161-.929-.001-1.8503-.1758-2.7199-.5161-.8826-.3394-1.689-.8632-2.3696-1.5392-.7159-.7212-1.286-1.5839-1.6769-2.5375-.4457-1.1035-.6643-2.2919-.6417-3.4886-.0079-1.0808.1362-2.157.4276-3.1944.2715-.9597.6685-1.876 1.18-2.7231.4946-.8156 1.0962-1.5554 1.7875-2.1978.6842-.6366 1.4429-1.1807 2.2581-1.6196.8196-.44069 1.6867-.7783 2.583-1.00572.9042-.23109 1.8319-.34764 2.7629-.34711.45-.00623.8995.02953 1.3433.10687.3716.07124.7962.17811 1.274.3206.604.20988 1.1704.52258 1.676.92536l.2055-.91128h5.8125l-3.0257 13.56228h3.2733l-1.098 4.8803h-9.0667zm.633-5.215.7525-.9792.8551-3.8448c-.1452-.2854-.3232-.5514-.5303-.792-.2329-.2686-.5077-.4943-.8129-.6677-.3335-.1932-.6902-.3397-1.0606-.4357-.3773-.1004-.7651-.1513-1.1545-.1516-.6067-.0021-1.2069.1283-1.7621.3827-.5455.2456-1.0416.5958-1.4627 1.0322-.4231.4435-.7626.9656-1.0008 1.5393-.2526.6006-.3809 1.2498-.3767 1.9054-.0099.5097.0773 1.0165.2564 1.4911.1564.4048.3958.7693.7015 1.0679.2963.2845.6456.5024 1.0263.6404.4015.1447.8237.217 1.2485.2137.3894-.0018.777-.0527 1.1546-.1516.397-.1023.7794-.258 1.1378-.4631.3747-.2127.7204-.4765 1.0279-.7845z" fill="#616d7e"/></svg>